<?xml version="1.0" standalone="no"?>
<!DOCTYPE svg PUBLIC "-//W3C//DTD SVG 20010904//EN"
 "http://www.w3.org/TR/2001/REC-SVG-20010904/DTD/svg10.dtd">
<svg version="1.0" xmlns="http://www.w3.org/2000/svg"
 width="512.000000pt" height="512.000000pt" viewBox="0 0 512.000000 512.000000"
 preserveAspectRatio="xMidYMid meet">
<g transform="translate(0.000000,512.000000) scale(0.100000,-0.100000)"
fill="#28315c" stroke="none">
<path d="M2314 4372 c-69 -24 -180 -105 -217 -158 -26 -36 -38 -45 -81 -54
-143 -31 -166 -25 -166 42 0 30 7 46 29 69 35 35 16 40 -34 9 -69 -43 -94
-119 -70 -212 8 -34 20 -67 26 -74 8 -10 5 -20 -10 -40 -28 -35 -29 -120 -2
-173 23 -44 74 -91 120 -110 48 -21 39 -50 -26 -80 -29 -14 -53 -29 -53 -34 0
-5 16 -43 37 -85 26 -53 46 -80 70 -94 18 -11 33 -25 33 -30 0 -16 80 -228
106 -280 13 -26 24 -52 24 -57 0 -9 -127 -61 -272 -110 -48 -16 -101 -38 -118
-48 -46 -27 -74 -97 -115 -283 -34 -154 -39 -167 -73 -202 -29 -31 -37 -47
-43 -95 -4 -40 -17 -75 -40 -112 -31 -50 -34 -61 -35 -136 -1 -81 -1 -83 -50
-156 -26 -41 -78 -106 -115 -144 -89 -95 -94 -114 -75 -267 14 -108 68 -324
85 -338 7 -5 7 -11 10 -70 1 -40 1 -40 44 -42 l42 -1 -38 -4 c-29 -3 -37 -8
-35 -21 2 -13 19 -19 68 -24 82 -9 382 -11 404 -2 9 3 16 1 16 -5 0 -6 6 -11
14 -11 7 0 19 -7 26 -15 9 -10 34 -15 84 -16 l71 -2 -74 -10 c-58 -8 -103 -6
-215 8 -77 10 -199 23 -269 29 l-129 12 7 -46 c4 -25 8 -46 9 -47 1 -1 55 -7
119 -13 101 -10 137 -8 274 9 222 28 402 41 578 41 84 0 221 7 306 15 85 8
228 19 319 25 91 6 212 17 270 24 58 8 179 25 269 37 161 22 170 23 510 10
390 -14 922 -37 1084 -47 103 -7 107 -6 107 14 0 18 -8 21 -82 26 -96 7 -629
32 -900 42 -103 4 -192 10 -199 15 -15 9 -3 159 36 478 36 292 48 462 42 602
-5 133 -17 177 -53 193 -20 9 -20 10 -3 27 33 33 43 97 43 264 -2 312 -59 442
-218 491 -68 21 -399 30 -560 15 l-119 -10 -111 35 c-61 20 -118 40 -126 45
-8 5 -36 20 -62 34 -47 25 -48 26 -48 73 0 37 7 60 32 98 86 134 140 303 143
442 2 79 3 84 33 114 18 16 33 33 33 37 9 42 6 47 -27 43 -19 -2 -41 -1 -51 2
-14 6 -12 11 15 36 35 32 44 58 14 39 -33 -21 -72 9 -117 87 -22 39 -50 84
-63 102 -26 36 -87 76 -105 69 -8 -4 -7 -6 3 -6 19 -1 85 -60 76 -68 -3 -4
-52 16 -108 42 -93 45 -108 49 -187 52 -64 3 -99 -1 -137 -15z m211 -16 c118
-33 232 -99 280 -163 l29 -38 -34 28 c-132 106 -221 141 -365 141 -104 1 -168
-17 -247 -70 -75 -51 -79 -51 -23 1 110 101 233 136 360 101z m-286 -130 c-61
-30 -90 -51 -82 -59 3 -4 -1 -7 -10 -7 -9 0 -17 4 -17 8 0 8 92 65 120 75 37
13 31 4 -11 -17z m382 -7 c62 -27 59 -33 -6 -13 -61 18 -104 13 -222 -27 -62
-21 -104 -29 -147 -28 l-61 2 71 7 c39 4 80 12 91 18 38 21 168 61 196 62 16
0 51 -10 78 -21z m-786 -106 c14 -13 36 -23 48 -23 20 0 22 -4 19 -38 -3 -32
3 -46 32 -86 25 -32 30 -44 17 -37 -30 17 -60 59 -67 97 -7 41 -24 55 -25 22
0 -22 -1 -22 -9 -3 -8 18 -9 18 -9 2 -1 -20 33 -91 57 -122 9 -11 0 -5 -20 14
-48 44 -80 120 -84 201 -3 53 -2 59 5 30 5 -19 21 -45 36 -57z m324 22 c23 -8
94 -46 157 -85 64 -38 139 -77 167 -85 91 -27 235 -14 341 30 13 6 17 5 12 -3
-14 -23 -164 -62 -240 -62 -97 0 -154 19 -267 87 -136 82 -295 145 -188 74 24
-17 67 -53 94 -81 l50 -52 -86 65 c-93 69 -139 90 -206 91 -31 1 -37 3 -25 10
48 27 133 32 191 11z m44 -175 c40 -27 101 -65 137 -83 64 -32 66 -32 205 -31
124 1 148 4 212 26 39 15 97 43 130 63 53 33 55 34 23 6 -85 -73 -224 -121
-351 -121 -144 0 -236 31 -367 125 -71 51 -107 63 -134 46 -20 -13 -24 -1 -5
18 21 22 75 4 150 -49z m797 57 c0 -2 -10 -12 -22 -23 l-23 -19 19 23 c18 21
26 27 26 19z m-1147 -105 c13 -11 16 -24 11 -48 -8 -44 11 -96 49 -135 l32
-32 -30 7 c-72 16 -141 142 -116 210 11 28 19 28 54 -2z m459 -81 c40 -15 81
-31 91 -34 9 -4 27 -22 38 -41 11 -20 44 -52 72 -72 l52 -38 -45 -11 c-25 -6
-92 -15 -150 -18 l-105 -6 39 20 c37 20 64 21 109 4 38 -15 14 17 -28 37 l-46
22 -93 -46 c-61 -30 -97 -54 -101 -68 -8 -25 -72 -29 -81 -5 -4 10 -19 15 -43
15 -68 0 -72 10 -56 125 8 55 15 105 15 110 0 6 15 10 33 8 17 -2 55 3 82 11
79 23 135 19 217 -13z m505 -183 c12 -13 24 -40 28 -60 8 -44 -14 -94 -72
-165 -44 -54 -81 -57 -95 -8 -9 32 0 157 12 165 4 3 19 24 34 48 30 49 60 55
93 20z m-212 -113 c4 -31 5 -74 1 -96 l-6 -40 26 18 27 17 -7 -94 c-5 -52 -14
-109 -21 -127 -15 -34 -75 -85 -209 -175 -107 -73 -160 -97 -206 -98 -48 0
-74 21 -89 72 -7 24 -23 63 -36 88 -24 47 -107 262 -102 265 1 1 19 5 40 9 42
8 43 4 27 -56 -14 -49 -2 -70 51 -95 39 -18 44 -19 61 -4 51 45 58 52 58 60 0
11 -56 -1 -89 -18 -26 -14 -66 -8 -74 11 -4 13 25 169 38 201 12 28 39 20 59
-17 34 -64 58 -79 125 -78 98 1 131 28 131 109 0 17 7 38 15 46 17 18 115 51
162 56 7 1 14 -21 18 -54z m-247 13 c17 -17 15 -103 -3 -121 -20 -20 -89 -31
-113 -18 -20 11 -52 78 -52 110 0 17 18 31 39 31 4 0 5 -14 3 -31 -4 -29 -3
-31 19 -24 13 4 26 12 27 16 2 5 8 9 13 9 6 0 7 -4 4 -10 -10 -16 31 -11 45 5
15 18 6 30 -25 38 -16 4 -15 5 6 6 14 0 30 -4 37 -11z m-403 -8 c4 -6 -7 -10
-24 -10 -17 0 -31 5 -31 10 0 6 11 10 24 10 14 0 28 -4 31 -10z m5 -85 c0 -52
-1 -55 -19 -46 -18 10 -41 59 -41 87 0 9 11 14 30 14 30 0 30 -1 30 -55z m68
25 c7 0 12 8 12 18 0 14 2 15 10 2 14 -21 12 -74 -2 -88 -7 -7 -25 -12 -40
-12 -27 0 -28 1 -28 57 0 54 1 55 18 40 10 -10 24 -17 30 -17z m702 -186 c0
-25 9 -92 21 -147 25 -125 21 -158 -35 -262 -107 -201 -222 -365 -255 -365
-20 0 -60 46 -66 77 -6 31 -24 76 -80 200 -38 87 -48 133 -29 140 7 2 23 -16
37 -40 52 -89 116 -102 178 -37 96 101 162 225 184 346 22 127 24 134 35 134
6 0 10 -21 10 -46z m134 -134 c31 -28 66 -84 66 -108 0 -6 -36 27 -80 73 -44
46 -80 86 -80 90 0 10 58 -24 94 -55z m208 -67 c59 -25 131 -61 160 -80 71
-47 106 -64 216 -107 170 -65 204 -92 233 -185 33 -107 49 -226 49 -360 0 -95
5 -141 19 -186 46 -147 62 -263 65 -468 3 -230 -7 -335 -16 -162 -3 61 -8 164
-10 230 -5 113 -19 192 -64 355 -9 32 -19 131 -24 240 -9 194 -27 305 -59 368
-25 48 -57 82 -79 83 -12 0 -13 2 -3 6 9 4 -251 101 -275 103 -1 0 -19 14 -40
31 -43 34 -197 113 -256 131 -21 6 -48 22 -60 35 l-23 25 30 -7 c17 -4 78 -28
137 -52z m643 -2 c43 -17 83 -59 112 -114 25 -51 63 -184 63 -221 -1 -12 -11
17 -24 64 -37 140 -78 199 -161 237 -35 16 -73 18 -290 19 -286 2 -281 2 -272
11 24 23 515 27 572 4z m-1611 -145 c-18 -14 -95 -45 -274 -111 -136 -51 -148
-59 -165 -118 -8 -28 -19 -104 -25 -167 -11 -121 -20 -145 -70 -182 -24 -17
-30 -29 -30 -59 0 -20 -7 -56 -15 -79 -8 -23 -15 -54 -15 -68 l0 -26 -21 20
-21 21 26 51 c14 28 26 66 26 85 0 24 8 41 29 61 32 31 40 55 76 226 29 135
51 195 82 223 12 10 90 43 174 73 85 31 170 61 189 69 41 15 64 3 34 -19z
m271 -54 c-7 -7 -55 39 -55 52 0 5 13 -3 30 -19 16 -16 28 -31 25 -33z m-159
-96 c-15 -58 -26 -114 -26 -125 0 -11 -4 -21 -9 -23 -5 -1 -28 -27 -51 -56
-23 -30 -44 -51 -47 -49 -2 3 9 29 25 58 17 30 52 114 78 188 26 74 50 129 52
123 1 -5 -8 -58 -22 -116z m-167 84 c-9 -5 -56 -24 -105 -41 -49 -18 -91 -36
-92 -41 -2 -4 -8 -6 -13 -2 -5 3 -9 0 -9 -6 0 -6 -5 -8 -11 -4 -7 4 -10 1 -7
-7 7 -20 -33 -39 -51 -25 -10 8 -13 8 -8 0 3 -6 -3 -18 -14 -27 -10 -9 -19
-22 -19 -29 0 -9 3 -8 10 2 6 9 10 10 10 3 0 -6 -5 -15 -10 -18 -6 -4 -7 -11
-4 -17 5 -7 2 -8 -6 -3 -11 7 -12 -16 -8 -121 5 -136 -5 -121 -21 30 l-8 81
-1 -80 c-1 -68 8 -139 33 -239 2 -12 -2 -5 -11 14 -24 51 -47 215 -40 284 10
98 29 124 116 159 192 76 323 119 269 87z m899 -252 c6 -21 7 -38 2 -38 -16 0
-22 38 -25 155 l-4 120 8 -100 c5 -55 13 -117 19 -137z m259 226 c-3 -3 -12
-4 -19 -1 -8 3 -5 6 6 6 11 1 17 -2 13 -5z m50 -10 c-3 -3 -12 -4 -19 -1 -8 3
-5 6 6 6 11 1 17 -2 13 -5z m40 -10 c-3 -3 -12 -4 -19 -1 -8 3 -5 6 6 6 11 1
17 -2 13 -5z m40 -10 c-3 -3 -12 -4 -19 -1 -8 3 -5 6 6 6 11 1 17 -2 13 -5z
m-717 -184 c0 -5 -5 -10 -11 -10 -5 0 -7 5 -4 10 3 6 8 10 11 10 2 0 4 -4 4
-10z m110 -180 c-43 -176 -53 -177 -14 -2 26 118 41 168 49 161 2 -2 -14 -74
-35 -159z m-220 47 c0 -2 -10 -12 -22 -23 l-23 -19 19 23 c18 21 26 27 26 19z
m-50 -61 c0 -2 -8 -10 -17 -17 -16 -13 -17 -12 -4 4 13 16 21 21 21 13z m-49
-351 l-8 -250 -1 237 c-2 207 2 277 14 266 1 -2 -1 -116 -5 -253z m1055 142
c-30 -40 -71 -100 -93 -133 -21 -32 -47 -60 -57 -62 -15 -3 -12 5 14 43 37 54
178 225 185 225 3 0 -19 -33 -49 -73z m417 56 c-23 -2 -64 -2 -90 0 -26 2 -7
3 42 3 50 0 71 -1 48 -3z m-1196 -25 c-3 -8 -6 -5 -6 6 -1 11 2 17 5 13 3 -3
4 -12 1 -19z m2 -189 c-16 -112 -33 -226 -36 -252 -3 -26 -10 -50 -15 -53 -5
-3 -7 5 -4 18 3 12 10 73 16 133 11 107 29 221 51 318 22 96 18 36 -12 -164z
m-1209 -33 c-16 -32 -30 -71 -30 -88 0 -25 3 -28 21 -23 l22 7 -21 -28 c-26
-37 -202 -211 -202 -201 0 5 36 52 79 106 l79 99 -5 83 c-4 73 -2 88 17 118
l22 34 24 -25 25 -24 -31 -58z m970 -202 c0 -8 -7 -14 -15 -14 -15 0 -21 21
-9 33 10 9 24 -2 24 -19z m-27 -274 c4 -94 3 -122 -3 -80 -4 36 -10 130 -13
210 -4 94 -3 122 3 80 4 -36 10 -130 13 -210z m1198 114 c38 -20 89 -54 112
-76 l42 -39 -48 35 c-26 20 -77 52 -113 72 -54 30 -72 36 -104 31 -45 -6 -136
-58 -203 -117 -26 -23 -47 -37 -47 -32 0 21 94 99 164 136 68 36 113 34 197
-10z m-1663 -314 c11 -134 5 -213 -17 -227 -11 -7 -44 -9 -83 -6 -62 5 -66 7
-81 38 -9 18 -32 46 -53 62 -20 15 -48 38 -63 50 l-26 23 36 32 c43 38 70 80
159 237 l65 114 28 -114 c15 -63 31 -157 35 -209z m-662 240 c-16 -5 -49 -28
-73 -52 l-44 -43 3 30 c2 22 12 35 43 52 22 13 54 22 70 22 l30 -1 -29 -8z
m2074 -4 c0 -2 -20 -25 -45 -50 -56 -59 -59 -51 -4 9 39 42 49 51 49 41z m204
-62 c49 -17 148 -100 188 -158 12 -17 -4 -3 -36 31 -38 42 -78 72 -121 94 -62
30 -69 31 -161 27 -85 -4 -93 -3 -63 8 49 18 138 17 193 -2z m-163 -28 c-18
-21 -79 -48 -242 -105 -87 -30 -161 -51 -185 -50 l-39 1 35 15 c52 23 383 141
411 146 13 2 26 5 28 6 2 0 -2 -5 -8 -13z m-974 -163 c-2 -16 -4 -5 -4 22 0
28 2 40 4 28 2 -13 2 -35 0 -50z m-841 -34 c29 -10 81 -122 90 -191 l6 -53
-25 33 c-39 51 -136 152 -146 152 -23 0 -17 -21 24 -83 50 -74 52 -79 29 -98
-15 -12 -22 -8 -56 31 -22 25 -51 66 -64 92 -17 33 -29 46 -39 42 -26 -10 -28
-7 107 -181 52 -68 56 -78 32 -87 -19 -7 -65 24 -89 61 -10 16 -40 54 -67 86
-45 55 -48 56 -54 33 -5 -20 3 -33 45 -73 75 -73 62 -99 -25 -48 -45 27 -64
62 -64 123 0 38 32 75 117 133 70 49 110 55 179 28z m1399 14 c28 -10 -109
-44 -210 -52 -49 -4 -92 -6 -93 -5 -2 2 38 16 90 33 89 29 176 39 213 24z
m-548 -55 c-3 -7 -5 -2 -5 12 0 14 2 19 5 13 2 -7 2 -19 0 -25z m-697 -95 c22
-28 26 -73 9 -90 -8 -8 -8 -13 0 -17 18 -12 13 -64 -8 -75 -14 -8 -23 -6 -36
9 -13 15 -16 29 -11 67 6 44 -3 92 -30 157 -7 19 -5 18 24 -2 17 -13 40 -34
52 -49z m1035 56 c138 -25 197 -99 150 -188 -23 -46 -63 -59 -262 -86 l-43 -5
0 45 c0 78 -76 193 -128 196 -31 1 6 11 116 29 59 10 107 19 108 19 0 1 27 -4
59 -10z m-472 -40 c177 -10 198 -17 240 -81 29 -45 43 -118 28 -147 -23 -42
-221 -63 -274 -28 -16 10 -24 23 -21 32 10 25 -23 17 -103 -25 -61 -32 -79
-37 -95 -29 -18 10 -17 14 25 62 24 28 69 65 99 82 46 25 53 32 41 43 -7 7
-22 11 -32 7 -32 -10 -96 -66 -152 -132 -52 -63 -77 -75 -98 -49 -9 11 -6 21
16 47 36 42 104 105 154 142 56 42 41 45 -31 6 -60 -32 -116 -80 -176 -152
-27 -32 -37 -37 -73 -37 -33 0 -41 3 -41 19 0 10 9 30 20 44 11 14 20 32 20
41 0 34 208 162 265 163 17 0 101 -4 188 -8z m-423 -89 c0 -4 -7 -10 -15 -13
-8 -4 -26 -29 -40 -57 -25 -49 -51 -63 -49 -27 0 10 1 38 2 65 l2 47 50 -3
c27 -2 50 -8 50 -12z m-590 -34 c0 -8 3 -21 6 -29 4 -12 0 -14 -15 -10 -28 7
-28 53 1 53 4 0 8 -6 8 -14z m334 -33 c14 -20 23 -40 20 -45 -11 -18 -44 -6
-65 23 -22 31 -22 32 -4 45 24 18 20 20 49 -23z"/>
<path d="M2741 3623 c-28 -35 -37 -72 -22 -95 7 -11 9 -33 5 -52 -7 -41 6 -52
34 -26 33 31 38 61 13 81 -22 18 -13 36 14 25 9 -3 12 0 8 10 -3 9 -14 19 -24
22 -13 5 -16 11 -9 22 8 13 11 13 25 -1 9 -9 23 -34 31 -55 l15 -39 -4 48 c-5
48 -28 87 -53 87 -7 0 -22 -12 -33 -27z"/>
<path d="M2125 3150 c-39 -5 -25 -7 63 -8 69 -1 112 2 112 8 0 11 -95 11 -175
0z"/>
<path d="M2220 3100 c-14 -4 -40 -8 -58 -9 -39 -1 -35 -17 7 -26 22 -5 35 0
56 19 16 15 26 26 24 25 -2 -1 -15 -5 -29 -9z"/>
<path d="M2508 2603 c7 -3 16 -2 19 1 4 3 -2 6 -13 5 -11 0 -14 -3 -6 -6z"/>
<path d="M2009 1137 c-62 -38 -137 -101 -144 -122 -4 -11 -9 -31 -11 -45 -4
-22 -2 -21 12 7 16 31 101 117 159 160 38 28 31 28 -16 0z"/>
<path d="M875 2393 c-288 -20 -800 -65 -806 -70 -4 -5 -10 -18 -14 -31 -7 -23
-5 -23 37 -18 23 3 220 18 437 32 370 26 394 27 406 10 7 -9 18 -54 25 -99 27
-182 141 -811 170 -940 16 -76 28 -142 25 -147 -3 -5 -1 -11 5 -15 16 -10 12
-35 -6 -35 -8 0 -13 -4 -10 -8 2 -4 -3 -8 -12 -8 -9 0 -37 -4 -61 -8 -33 -6
-42 -5 -36 4 5 9 1 10 -15 5 -39 -12 -67 -12 -104 0 -20 7 -33 9 -30 4 3 -5
-13 -9 -34 -9 -25 0 -42 5 -45 14 -7 17 -258 29 -269 12 -5 -7 -8 -7 -8 2 0 6
-5 12 -11 12 -5 0 -7 -5 -3 -12 5 -7 3 -8 -7 -2 -22 14 -67 11 -62 -3 3 -7 -2
-13 -11 -13 -9 0 -16 4 -16 9 0 6 -10 6 -28 0 l-27 -9 6 -89 c3 -49 9 -93 13
-100 9 -14 -5 -14 -199 4 -196 18 -185 18 -185 0 0 -8 4 -15 9 -15 6 0 121
-16 258 -35 911 -127 956 -131 1274 -100 130 12 172 12 269 1 86 -10 246 -12
645 -8 500 4 539 3 680 -17 179 -25 238 -26 325 -6 36 9 182 26 325 38 l260
23 -185 8 c-114 5 -255 4 -369 -3 -457 -27 -1119 -1 -1405 55 -71 14 -89 14
-200 0 -182 -25 -494 -56 -551 -56 -27 0 -55 4 -61 8 -27 18 -124 497 -204
1007 -41 256 -86 485 -105 532 l-15 36 -123 -7 c-67 -4 -264 -17 -437 -30
-173 -13 -317 -22 -319 -20 -2 2 -2 6 0 8 4 4 761 65 847 68 24 1 47 -3 50 -8
4 -5 21 -9 37 -9 25 0 32 -5 41 -34 12 -38 30 -26 20 13 -10 42 -90 66 -191
59z m-80 -1323 c4 -7 -3 -10 -19 -8 -35 5 -45 18 -13 18 14 0 29 -5 32 -10z
m385 -26 c0 -8 -5 -12 -10 -9 -6 4 -8 11 -5 16 9 14 15 11 15 -7z m7 -46 c-3
-8 -6 -5 -6 6 -1 11 2 17 5 13 3 -3 4 -12 1 -19z m10 -50 c-3 -8 -6 -5 -6 6
-1 11 2 17 5 13 3 -3 4 -12 1 -19z m10 -50 c-3 -8 -6 -5 -6 6 -1 11 2 17 5 13
3 -3 4 -12 1 -19z m10 -40 c-3 -8 -6 -5 -6 6 -1 11 2 17 5 13 3 -3 4 -12 1
-19z m10 -65 c-3 -10 -5 -2 -5 17 0 19 2 27 5 18 2 -10 2 -26 0 -35z"/>
<path d="M298 1093 c7 -3 16 -2 19 1 4 3 -2 6 -13 5 -11 0 -14 -3 -6 -6z"/>
<path d="M1368 823 c12 -2 32 -2 45 0 12 2 2 4 -23 4 -25 0 -35 -2 -22 -4z"/>
<path d="M4960 773 c-85 -6 -324 -23 -530 -38 -206 -14 -519 -39 -695 -55
-255 -23 -395 -30 -690 -34 -203 -3 -598 -10 -876 -17 l-506 -12 -149 26
c-211 37 -340 53 -661 82 -155 14 -319 30 -365 35 -46 6 -174 10 -285 10 -197
0 -203 -1 -203 -20 0 -11 6 -23 12 -25 17 -6 846 -134 978 -151 108 -14 339
-34 491 -41 47 -3 180 2 295 11 212 16 680 39 1124 55 501 18 733 -23 926
-164 18 -14 77 -5 654 101 349 63 636 116 638 118 1 2 2 32 0 67 l-3 64 -155
-12z"/>
</g>
</svg>